<?xml version="1.0" encoding="UTF-8" standalone="no"?>
<!-- Created with Inkscape (http://www.inkscape.org/) -->

<svg
   version="1.1"
   id="svg1"
   width="177.12801"
   height="186.87466"
   viewBox="0 0 177.12801 186.87466"
   xmlns="http://www.w3.org/2000/svg"
   xmlns:svg="http://www.w3.org/2000/svg">
  <defs
     id="defs1" />
  <g
     id="g1">
    <path
       id="path1"
       d="M -5.66927,0 H 81.45387"
       style="fill:none;stroke:#000000;stroke-width:0.3985;stroke-linecap:butt;stroke-linejoin:miter;stroke-miterlimit:10;stroke-dasharray:none;stroke-opacity:1"
       transform="matrix(1.3333333,0,0,-1.3333333,40.416,178.36267)" />
    <path
       id="path2"
       d="M 3.58653,0 C 2.52383,0.19925 0.797,0.797 -0.3985,1.49438 V -1.49438 C 0.797,-0.797 2.52383,-0.19925 3.58653,0"
       style="fill:#000000;fill-opacity:1;fill-rule:nonzero;stroke:none"
       transform="matrix(1.3333333,0,0,-1.3333333,149.02116,178.36267)" />
    <path
       id="path3"
       d="m 2.0518516,-3.9853906 h 0.9375 c 0.1992187,0 0.3046875,0 0.3046875,-0.1992188 0,-0.1054687 -0.1054688,-0.1054687 -0.28125,-0.1054687 H 2.1338828 c 0.3632813,-1.4179688 0.4101563,-1.6171875 0.4101563,-1.6757813 0,-0.1757812 -0.1171875,-0.2695312 -0.2929688,-0.2695312 -0.023437,0 -0.3046875,0.011719 -0.3984375,0.3515625 l -0.3867187,1.59375 H 0.52841406 c -0.19921875,0 -0.29296875,0 -0.29296875,0.1875 0,0.1171875 0.0703125,0.1171875 0.26953125,0.1171875 H 1.3838828 c -0.71484374,2.8242187 -0.74999999,2.99999998 -0.74999999,3.17578123 0,0.5390625 0.37499999,0.9140625 0.91406249,0.9140625 1.0078125,0 1.5820313,-1.45312503 1.5820313,-1.53515623 0,-0.09375 -0.082031,-0.09375 -0.1171875,-0.09375 -0.09375,0 -0.1054688,0.023437 -0.1523438,0.140625 -0.4335937,1.03124998 -0.9609375,1.27734373 -1.3007812,1.27734373 -0.1992188,0 -0.3046875,-0.12890625 -0.3046875,-0.45703125 0,-0.24609375 0.023437,-0.31640625 0.058594,-0.48046878 z m 0,0"
       style="fill:#000000;fill-opacity:1;fill-rule:nonzero;stroke:none"
       aria-label="t"
       transform="matrix(1.3333333,0,0,1.3333333,158.49467,182.44667)" />
    <path
       id="path4"
       d="M 0,-5.66927 V 53.10707"
       style="fill:none;stroke:#000000;stroke-width:0.3985;stroke-linecap:butt;stroke-linejoin:miter;stroke-miterlimit:10;stroke-dasharray:none;stroke-opacity:1"
       transform="matrix(1.3333333,0,0,-1.3333333,40.416,178.36267)" />
    <path
       id="path5"
       d="M 3.58653,0 C 2.52383,0.19925 0.797,0.797 -0.3985,1.49438 V -1.49438 C 0.797,-0.797 2.52383,-0.19925 3.58653,0"
       style="fill:#000000;fill-opacity:1;fill-rule:nonzero;stroke:none"
       transform="matrix(0,-1.3333333,-1.3333333,0,40.416,107.55324)" />
    <path
       id="path6"
       d="m 3.0233906,-3.233 h 0.9609375 c 0.75,0 0.8320313,0.1523437 0.8320313,0.4453125 0,0.070312 0,0.1875 -0.070312,0.4921875 -0.023437,0.046875 -0.035156,0.082031 -0.035156,0.1054687 0,0.082031 0.058594,0.1171875 0.1171875,0.1171875 0.1054688,0 0.1054688,-0.023437 0.1523438,-0.2109375 l 0.5507812,-2.15625 c 0.023437,-0.1054687 0.023437,-0.1289062 0.023437,-0.1640625 0,-0.011719 -0.011719,-0.1054687 -0.1171875,-0.1054687 -0.09375,0 -0.1054687,0.046875 -0.1523437,0.2109375 -0.1992188,0.7734375 -0.4335938,0.9492187 -1.2773438,0.9492187 H 3.0937031 l 0.6445313,-2.53125 C 3.8202656,-6.4205 3.8319844,-6.467375 4.2772969,-6.467375 h 1.3125 c 1.21875,0 1.453125,0.328125 1.453125,1.1015625 0,0.2226562 0,0.2695312 -0.035156,0.5390625 -0.011719,0.1289062 -0.011719,0.140625 -0.011719,0.1757812 0,0.046875 0.023437,0.1171875 0.1171875,0.1171875 0.1054687,0 0.1171875,-0.058594 0.140625,-0.2460937 L 7.4530781,-6.5025313 C 7.4765156,-6.7720625 7.4296406,-6.7720625 7.1835469,-6.7720625 H 2.2968281 c -0.1992187,0 -0.2929687,0 -0.2929687,0.1992187 0,0.1054688 0.09375,0.1054688 0.28125,0.1054688 0.3632812,0 0.6445312,0 0.6445312,0.1875 0,0.035156 0,0.058594 -0.046875,0.234375 l -1.3242187,5.2734375 c -0.09375,0.38671875 -0.1171875,0.46875 -0.90234377,0.46875 -0.1640625,0 -0.28125,0 -0.28125,0.1875 0,0.1171875 0.12890625,0.1171875 0.15234375,0.1171875 0.29296875,0 1.03125002,-0.03515625 1.31250002,-0.03515625 0.328125,0 1.1601562,0.03515625 1.4882812,0.03515625 0.09375,0 0.2109375,0 0.2109375,-0.1875 0,-0.0820312 -0.058594,-0.10546875 -0.058594,-0.1171875 -0.035156,0 -0.058594,0 -0.28125,0 -0.2226563,0 -0.2695313,0 -0.515625,-0.0234375 -0.2929688,-0.0351563 -0.328125,-0.0703125 -0.328125,-0.19921875 0,-0.0234375 0,-0.0820313 0.046875,-0.234375 z m 0,0"
       style="fill:#000000;fill-opacity:1;fill-rule:nonzero;stroke:none"
       aria-label="F"
       transform="matrix(1.3333333,0,0,1.3333333,25.336,107.31067)" />
    <path
       id="path7"
       d="M -14.17339,127.56062 H 85.04042"
       style="fill:none;stroke:#000000;stroke-width:0.3985;stroke-linecap:butt;stroke-linejoin:miter;stroke-miterlimit:10;stroke-dasharray:none;stroke-opacity:1"
       transform="matrix(1.3333333,0,0,-1.3333333,40.416,178.36267)" />
    <path
       id="path8"
       d="M -14.17339,70.867 H 85.04042"
       style="fill:none;stroke:#000000;stroke-width:0.3985;stroke-linecap:butt;stroke-linejoin:miter;stroke-miterlimit:10;stroke-dasharray:none;stroke-opacity:1"
       transform="matrix(1.3333333,0,0,-1.3333333,40.416,178.36267)" />
    <g
       id="g8"
       aria-label="v&#10;1"
       transform="matrix(1.3333333,0,0,1.3333333,4.428,85.737333)">
      <path
         id="path9"
         d="m 4.6653281,-3.7024141 c 0,-0.5390625 -0.2578125,-0.703125 -0.4453125,-0.703125 -0.2460937,0 -0.4804687,0.2578125 -0.4804687,0.4804688 0,0.1289062 0.046875,0.1875 0.1523437,0.3046875 0.2109375,0.1992187 0.3398438,0.4570312 0.3398438,0.8085937 0,0.421875 -0.609375,2.70703129 -1.7695313,2.70703129 -0.5039062,0 -0.7382812,-0.3515625 -0.7382812,-0.8671875 0,-0.56249999 0.2695312,-1.28906249 0.5742187,-2.12109379 0.070312,-0.1640625 0.1289063,-0.3046875 0.1289063,-0.4921875 0,-0.4453125 -0.328125,-0.8203125 -0.8203125,-0.8203125 -0.93750002,0 -1.31250002,1.453125 -1.31250002,1.5351563 0,0.1054687 0.09375,0.1054687 0.1171875,0.1054687 0.09375,0 0.10546875,-0.023437 0.15234375,-0.1875 0.29296875,-0.9960937 0.72656247,-1.2304687 1.00781247,-1.2304687 0.082031,0 0.2578125,0 0.2578125,0.3164062 0,0.2460938 -0.1054687,0.515625 -0.1757812,0.703125 -0.4335938,1.1484375 -0.5625,1.6054688 -0.5625,2.0390625 0,1.07812504 0.8671875,1.23046879 1.3359375,1.23046879 1.6640625,0 2.2382812,-3.29296879 2.2382812,-3.80859379 z m 0,0"
         style="fill:#000000;fill-opacity:1;fill-rule:nonzero;stroke:none" />
      <path
         id="path10"
         d="m 7.1614219,-2.9348359 c 0,-0.1875 -0.011719,-0.1992188 -0.2109375,-0.1992188 -0.4453125,0.4335938 -1.078125,0.4453125 -1.359375,0.4453125 v 0.2460938 c 0.1640625,0 0.6210937,0 1.0078125,-0.1875 v 3.55078121 c 0,0.23437499 0,0.32812499 -0.6914063,0.32812499 H 5.6379844 v 0.2460938 c 0.1289062,-0.011719 0.984375,-0.023437 1.2421875,-0.023437 0.2109375,0 1.0898437,0.011719 1.2421875,0.023437 V 1.2487578 H 7.8645469 c -0.703125,0 -0.703125,-0.09375 -0.703125,-0.32812499 z m 0,0"
         style="fill:#000000;fill-opacity:1;fill-rule:nonzero;stroke:none" />
    </g>
    <g
       id="g10"
       aria-label="v&#10;2"
       transform="matrix(1.3333333,0,0,1.3333333,4.428,10.146667)">
      <path
         id="path11"
         d="m 4.6653281,-3.7017969 c 0,-0.5390625 -0.2578125,-0.703125 -0.4453125,-0.703125 -0.2460937,0 -0.4804687,0.2578125 -0.4804687,0.4804688 0,0.1289062 0.046875,0.1875 0.1523437,0.3046875 0.2109375,0.1992187 0.3398438,0.4570312 0.3398438,0.8085937 0,0.421875 -0.609375,2.70703127 -1.7695313,2.70703127 -0.5039062,0 -0.7382812,-0.3515625 -0.7382812,-0.8671875 0,-0.56249997 0.2695312,-1.28906247 0.5742187,-2.12109377 0.070312,-0.1640625 0.1289063,-0.3046875 0.1289063,-0.4921875 0,-0.4453125 -0.328125,-0.8203125 -0.8203125,-0.8203125 -0.93750002,0 -1.31250002,1.453125 -1.31250002,1.5351563 0,0.1054687 0.09375,0.1054687 0.1171875,0.1054687 0.09375,0 0.10546875,-0.023437 0.15234375,-0.1875 0.29296875,-0.9960937 0.72656247,-1.2304687 1.00781247,-1.2304687 0.082031,0 0.2578125,0 0.2578125,0.3164062 0,0.2460938 -0.1054687,0.515625 -0.1757812,0.703125 -0.4335938,1.1484375 -0.5625,1.6054688 -0.5625,2.0390625 0,1.07812502 0.8671875,1.23046877 1.3359375,1.23046877 1.6640625,0 2.2382812,-3.29296877 2.2382812,-3.80859377 z m 0,0"
         style="fill:#000000;fill-opacity:1;fill-rule:nonzero;stroke:none" />
      <path
         id="path12"
         d="m 8.3450156,0.22691406 h -0.234375 c -0.023437,0.15234375 -0.082031,0.5625 -0.1757812,0.6328125 -0.058594,0.0351563 -0.5976563,0.0351563 -0.6914063,0.0351563 H 5.9543906 c 0.7382813,-0.64453125 0.984375,-0.84375 1.3945313,-1.171875 0.515625,-0.41015625 0.9960937,-0.84374996 0.9960937,-1.49999996 0,-0.8437501 -0.7382812,-1.3593751 -1.6289062,-1.3593751 -0.8671875,0 -1.453125,0.609375 -1.453125,1.2421876 0,0.3632813 0.3046875,0.3984375 0.375,0.3984375 0.1640625,0 0.375,-0.1171875 0.375,-0.375 0,-0.1289062 -0.058594,-0.3632812 -0.421875,-0.3632812 0.2226562,-0.5039064 0.6914062,-0.65625 1.0195312,-0.65625 0.703125,0 1.0664063,0.5507811 1.0664063,1.1132812 0,0.609375 -0.4335938,1.08984371 -0.65625,1.33593746 l -1.6875,1.66406254 c -0.070312,0.058594 -0.070312,0.070312 -0.070312,0.2695313 h 2.8828125 z m 0,0"
         style="fill:#000000;fill-opacity:1;fill-rule:nonzero;stroke:none" />
    </g>
    <path
       id="path13"
       d="M 28.3468,0 V 17.00824 H 56.69362 V 0"
       style="fill:none;stroke:#ff0000;stroke-width:0.79701;stroke-linecap:butt;stroke-linejoin:miter;stroke-miterlimit:10;stroke-dasharray:none;stroke-opacity:1"
       transform="matrix(1.3333333,0,0,-1.3333333,40.416,178.36267)" />
    <path
       id="path14"
       d="m 28.3468,0 v 42.5202 h 5.66928 V 0"
       style="fill:none;stroke:#008000;stroke-width:0.79701;stroke-linecap:butt;stroke-linejoin:miter;stroke-miterlimit:10;stroke-dasharray:none;stroke-opacity:1"
       transform="matrix(1.3333333,0,0,-1.3333333,40.416,178.36267)" />
    <path
       id="path15"
       d="m 28.3468,70.867 28.34682,56.69362"
       style="fill:none;stroke:#ff0000;stroke-width:0.79701;stroke-linecap:butt;stroke-linejoin:miter;stroke-miterlimit:10;stroke-dasharray:none;stroke-opacity:1"
       transform="matrix(1.3333333,0,0,-1.3333333,40.416,178.36267)" />
    <path
       id="path16"
       d="m 28.3468,70.867 5.66928,56.69362"
       style="fill:none;stroke:#008000;stroke-width:0.79701;stroke-linecap:butt;stroke-linejoin:miter;stroke-miterlimit:10;stroke-dasharray:none;stroke-opacity:1"
       transform="matrix(1.3333333,0,0,-1.3333333,40.416,178.36267)" />
    <path
       id="path17"
       d="M 56.69362,17.00824 V 127.56062"
       style="fill:none;stroke:#ff0000;stroke-width:0.3985;stroke-linecap:butt;stroke-linejoin:miter;stroke-miterlimit:10;stroke-dasharray:2.98883, 2.98883;stroke-dashoffset:0;stroke-opacity:1"
       transform="matrix(1.3333333,0,0,-1.3333333,40.416,178.36267)" />
    <path
       id="path18"
       d="M 28.3468,127.56062 V 42.5202"
       style="fill:none;stroke:#008000;stroke-width:0.3985;stroke-linecap:butt;stroke-linejoin:miter;stroke-miterlimit:10;stroke-dasharray:2.98883, 2.98883;stroke-dashoffset:0;stroke-opacity:1"
       transform="matrix(1.3333333,0,0,-1.3333333,40.416,178.36267)" />
    <path
       id="path19"
       d="M 34.01608,127.56062 V 42.5202"
       style="fill:none;stroke:#008000;stroke-width:0.3985;stroke-linecap:butt;stroke-linejoin:miter;stroke-miterlimit:10;stroke-dasharray:2.98883, 2.98883;stroke-dashoffset:0;stroke-opacity:1"
       transform="matrix(1.3333333,0,0,-1.3333333,40.416,178.36267)" />
    <path
       id="path20"
       d="m 82.20555,74.45355 v 49.52054"
       style="fill:none;stroke:#000000;stroke-width:0.3985;stroke-linecap:butt;stroke-linejoin:miter;stroke-miterlimit:10;stroke-dasharray:none;stroke-opacity:1"
       transform="matrix(1.3333333,0,0,-1.3333333,40.416,178.36267)" />
    <path
       id="path21"
       d="M 3.58653,0 C 2.52383,0.19925 0.797,0.797 -0.3985,1.49438 V -1.49438 C 0.797,-0.797 2.52383,-0.19925 3.58653,0"
       style="fill:#000000;fill-opacity:1;fill-rule:nonzero;stroke:none"
       transform="matrix(0,1.3333333,1.3333333,0,150.0234,79.091267)" />
    <path
       id="path22"
       d="M 3.58653,0 C 2.52383,0.19925 0.797,0.797 -0.3985,1.49438 V -1.49438 C 0.797,-0.797 2.52383,-0.19925 3.58653,0"
       style="fill:#000000;fill-opacity:1;fill-rule:nonzero;stroke:none"
       transform="matrix(0,-1.3333333,-1.3333333,0,150.0234,13.06388)" />
    <g
       id="g22"
       aria-label="∆v"
       transform="matrix(1.3333333,0,0,1.3333333,154.71467,50.617333)">
      <path
         id="path23"
         d="m 4.4063828,-6.9493281 c -0.070312,-0.1289063 -0.09375,-0.1875 -0.2578125,-0.1875 -0.1757812,0 -0.1992187,0.058594 -0.2578125,0.1875 l -3.37499999,6.74999997 c -0.046875,0.09375 -0.046875,0.10546875 -0.046875,0.1171875 0,0.082031255 0.0585938,0.082031255 0.22265625,0.082031255 H 7.6056016 c 0.1523437,0 0.2109375,0 0.2109375,-0.082031255 0,-0.01171875 0,-0.0234375 -0.046875,-0.1171875 z m -0.5859375,0.8085937 2.6835938,5.37890627 H 1.1368516 Z m 0,0"
         style="fill:#000000;fill-opacity:1;fill-rule:nonzero;stroke:none" />
      <path
         id="path24"
         d="m 12.96693,-3.7032344 c 0,-0.5390625 -0.257813,-0.703125 -0.445313,-0.703125 -0.246094,0 -0.480469,0.2578125 -0.480469,0.4804688 0,0.1289062 0.04687,0.1875 0.152344,0.3046875 0.210938,0.1992187 0.339844,0.4570312 0.339844,0.8085937 0,0.421875 -0.609375,2.70703127 -1.769531,2.70703127 -0.503907,0 -0.738282,-0.3515625 -0.738282,-0.8671875 0,-0.56249997 0.269532,-1.28906247 0.574219,-2.12109377 0.07031,-0.1640625 0.128906,-0.3046875 0.128906,-0.4921875 0,-0.4453125 -0.328125,-0.8203125 -0.8203121,-0.8203125 -0.9375,0 -1.3125,1.453125 -1.3125,1.5351563 0,0.1054687 0.09375,0.1054687 0.1171875,0.1054687 0.09375,0 0.1054688,-0.023437 0.1523438,-0.1875 0.2929687,-0.9960937 0.7265625,-1.2304687 1.0078125,-1.2304687 0.082031,0 0.2578123,0 0.2578123,0.3164062 0,0.2460938 -0.105469,0.515625 -0.1757811,0.703125 -0.4335937,1.1484375 -0.5625,1.6054688 -0.5625,2.0390625 0,1.07812502 0.8671871,1.23046877 1.3359371,1.23046877 1.664063,0 2.238282,-3.29296877 2.238282,-3.80859377 z m 0,0"
         style="fill:#000000;fill-opacity:1;fill-rule:nonzero;stroke:none" />
    </g>
  </g>
</svg>
