<?xml version="1.0" encoding="UTF-8" standalone="no"?>
<!-- Created with Inkscape (http://www.inkscape.org/) -->

<svg
   version="1.1"
   id="svg1"
   width="149.52667"
   height="225.56267"
   viewBox="0 0 149.52667 225.56267"
   xmlns="http://www.w3.org/2000/svg"
   xmlns:svg="http://www.w3.org/2000/svg">
  <defs
     id="defs1" />
  <g
     id="g1">
    <path
       id="path1"
       d="M -14.17339,0 H 81.45387"
       style="fill:none;stroke:#000000;stroke-width:0.3985;stroke-linecap:butt;stroke-linejoin:miter;stroke-miterlimit:10;stroke-dasharray:none;stroke-opacity:1"
       transform="matrix(1.3333333,0,0,-1.3333333,19.429333,206.4)" />
    <path
       id="path2"
       d="M 3.58653,0 C 2.52383,0.19925 0.797,0.797 -0.3985,1.49438 V -1.49438 C 0.797,-0.797 2.52383,-0.19925 3.58653,0"
       style="fill:#000000;fill-opacity:1;fill-rule:nonzero;stroke:none"
       transform="matrix(1.3333333,0,0,-1.3333333,128.03449,206.4)" />
    <path
       id="path3"
       d="m 3.3279844,-3.0123594 c 0.058594,-0.2578125 0.2929687,-1.171875 0.984375,-1.171875 0.046875,0 0.2929687,0 0.5039062,0.1289063 -0.28125,0.046875 -0.4804687,0.3046875 -0.4804687,0.5390625 0,0.1640625 0.1054687,0.3515625 0.375,0.3515625 0.2226562,0 0.5390625,-0.1875 0.5390625,-0.5859375 0,-0.515625 -0.5859375,-0.65625 -0.9257813,-0.65625 -0.5742187,0 -0.9257812,0.5273437 -1.0429687,0.7617187 -0.2578125,-0.65625 -0.7851563,-0.7617187 -1.078125,-0.7617187 -1.0429688,0 -1.60546877,1.2890625 -1.60546877,1.5351562 0,0.1054688 0.10546875,0.1054688 0.1171875,0.1054688 0.0820313,0 0.1171875,-0.023437 0.12890625,-0.1171875 0.33984372,-1.0546875 0.99609372,-1.3007813 1.33593752,-1.3007813 0.1875,0 0.5390625,0.09375 0.5390625,0.6679688 0,0.3046875 -0.1640625,0.9726562 -0.5390625,2.3671875 -0.1523438,0.62109373 -0.5039063,1.04296873 -0.9492188,1.04296873 -0.058594,0 -0.28124997,0 -0.49218747,-0.12890625 0.24609375,-0.0585937 0.46874997,-0.26953125 0.46874997,-0.5390625 0,-0.26953128 -0.22265622,-0.35156248 -0.37499997,-0.35156248 -0.29296875,0 -0.5390625,0.25781248 -0.5390625,0.57421873 0,0.45703125 0.4921875,0.65625 0.93749997,0.65625 0.65625,0 1.0078125,-0.69140625 1.0429688,-0.75 0.1171875,0.36328125 0.4804687,0.75 1.078125,0.75 1.0195312,0 1.59375,-1.27734373 1.59375,-1.53515623 0,-0.09375 -0.09375,-0.09375 -0.1289063,-0.09375 -0.082031,0 -0.1054687,0.035156 -0.1289062,0.1054687 -0.328125,1.06640628 -0.9960938,1.31250003 -1.3242188,1.31250003 -0.3867187,0 -0.5390625,-0.328125 -0.5390625,-0.65625 0,-0.22265625 0.058594,-0.44531253 0.1640625,-0.87890623 z m 0,0"
       style="fill:#000000;fill-opacity:1;fill-rule:nonzero;stroke:none"
       aria-label="x"
       transform="matrix(1.3333333,0,0,1.3333333,137.508,209.25867)" />
    <path
       id="path4"
       d="M 0,-14.17339 V 138.1475"
       style="fill:none;stroke:#000000;stroke-width:0.3985;stroke-linecap:butt;stroke-linejoin:miter;stroke-miterlimit:10;stroke-dasharray:none;stroke-opacity:1"
       transform="matrix(1.3333333,0,0,-1.3333333,19.429333,206.4)" />
    <path
       id="path5"
       d="M 3.58653,0 C 2.52383,0.19925 0.797,0.797 -0.3985,1.49438 V -1.49438 C 0.797,-0.797 2.52383,-0.19925 3.58653,0"
       style="fill:#000000;fill-opacity:1;fill-rule:nonzero;stroke:none"
       transform="matrix(0,-1.3333333,-1.3333333,0,19.429333,22.203333)" />
    <path
       id="path6"
       d="m 4.8390391,-3.7955469 c 0.046875,-0.140625 0.046875,-0.1523437 0.046875,-0.2226562 0,-0.1875 -0.140625,-0.2695313 -0.2929688,-0.2695313 -0.1054687,0 -0.2578125,0.058594 -0.3515625,0.1992188 -0.023437,0.058594 -0.09375,0.3632812 -0.140625,0.5390625 -0.070312,0.2578125 -0.140625,0.5273437 -0.1992187,0.796875 l -0.4453125,1.79296873 c -0.035156,0.15234375 -0.46875,0.85546875 -1.125,0.85546875 -0.5039063,0 -0.6210938,-0.4453125 -0.6210938,-0.80859375 0,-0.45703123 0.1757813,-1.07812503 0.515625,-1.95703123 0.1523438,-0.4101563 0.1992188,-0.515625 0.1992188,-0.7148438 0,-0.4453125 -0.328125,-0.8203125 -0.8203125,-0.8203125 -0.94921879,0 -1.31250004,1.453125 -1.31250004,1.5351563 0,0.1054687 0.09375,0.1054687 0.1171875,0.1054687 0.09375,0 0.10546875,-0.023437 0.15234375,-0.1875 0.26953125,-0.9375 0.66796879,-1.2304687 1.00781249,-1.2304687 0.082031,0 0.2578125,0 0.2578125,0.3164062 0,0.2460938 -0.1054687,0.515625 -0.1757812,0.703125 -0.3984375,1.0546875 -0.5742188,1.6171875 -0.5742188,2.0859375 0,0.89062503 0.6210938,1.18359378 1.21875,1.18359378 0.3867188,0 0.7265625,-0.1640625 0.9960938,-0.4453125 -0.1289063,0.515625 -0.2460938,1.0078125 -0.6445313,1.53515622 -0.2578125,0.3398438 -0.6328125,0.6328125 -1.0898437,0.6328125 -0.140625,0 -0.59765629,-0.035156 -0.76171879,-0.421875 0.1640625,0 0.29296879,0 0.43359379,-0.1171875 0.09375,-0.09375 0.1992187,-0.2226562 0.1992187,-0.41015622 0,-0.31640625 -0.2695312,-0.3515625 -0.375,-0.3515625 -0.22265624,0 -0.55078124,0.1640625 -0.55078124,0.64453122 0,0.5039063 0.43359375,0.8671875 1.05468754,0.8671875 1.0195312,0 2.0507812,-0.9023437 2.3320312,-2.02734372 z m 0,0"
       style="fill:#000000;fill-opacity:1;fill-rule:nonzero;stroke:none"
       aria-label="y"
       transform="matrix(1.3333333,0,0,1.3333333,15.934667,10.146667)" />
    <path
       id="path7"
       d="m -14.17339,17.1964 c 0,0 0.41346,0.25329 0.57225,0.35165 0.15879,0.09836 0.41346,0.257 0.57224,0.35727 0.1588,0.10028 0.41347,0.26324 0.57225,0.36551 0.15878,0.10227 0.41347,0.2673 0.57225,0.37155 0.15878,0.10423 0.41347,0.27318 0.57225,0.37976 0.15878,0.10658 0.41347,0.27943 0.57225,0.38843 0.15878,0.10898 0.41347,0.2861 0.57225,0.39705 0.15878,0.11096 0.41345,0.28982 0.57225,0.40271 0.15879,0.11287 0.41345,0.29525 0.57224,0.4109 0.15878,0.11565 0.41346,0.30455 0.57225,0.42259 0.15878,0.11805 0.41346,0.30783 0.57225,0.42823 0.15878,0.12037 0.41346,0.31672 0.57225,0.43945 0.15878,0.12273 0.41347,0.31995 0.57225,0.44507 0.15878,0.12512 0.41346,0.3289 0.57225,0.45677 0.15878,0.12788 0.41345,0.33438 0.57223,0.46496 0.1588,0.13059 0.41347,0.34331 0.57225,0.47625 0.15879,0.13292 0.41347,0.34616 0.57225,0.48184 0.15879,0.13567 0.41347,0.35761 0.57226,0.49611 0.15878,0.1385 0.41346,0.36091 0.57225,0.50218 0.15878,0.14128 0.41347,0.37163 0.57225,0.51602 0.15878,0.14438 0.41345,0.37757 0.57225,0.52466 0.15878,0.14709 0.41345,0.38522 0.57223,0.53549 0.1588,0.15027 0.41347,0.39415 0.57225,0.54759 0.15879,0.15346 0.41347,0.40285 0.57225,0.5584 0.15879,0.15555 0.41344,0.40405 0.57221,0.56274 0.15878,0.15868 0.41346,0.41816 0.57225,0.58091 0.15878,0.16275 0.41346,0.42602 0.57225,0.59213 0.15878,0.16612 0.41345,0.43561 0.57225,0.60513 0.15878,0.16953 0.41345,0.44389 0.57223,0.61679 0.15879,0.1729 0.41347,0.45291 0.57225,0.62935 0.15879,0.17644 0.41347,0.46222 0.57225,0.64232 0.15879,0.18009 0.41347,0.47197 0.57225,0.65573 0.15879,0.18376 0.41347,0.48117 0.57225,0.6687 0.15879,0.18753 0.41347,0.49167 0.57225,0.68299 0.15879,0.19131 0.41346,0.50073 0.57224,0.69593 0.1588,0.19522 0.41346,0.51186 0.57225,0.71109 0.15878,0.19924 0.41347,0.52169 0.57225,0.72495 0.15878,0.20326 0.41347,0.53273 0.57225,0.74007 0.15878,0.20735 0.41347,0.54269 0.57225,0.75434 0.15878,0.21166 0.41347,0.55519 0.57225,0.77123 0.15878,0.21603 0.41345,0.5656 0.57225,0.7859 0.15879,0.22031 0.41346,0.57708 0.57224,0.80194 0.1588,0.22487 0.41346,0.58932 0.57225,0.81879 0.15878,0.22949 0.41347,0.60106 0.57225,0.83523 0.15878,0.23418 0.41347,0.61375 0.57225,0.85253 0.15878,0.2388 0.41347,0.62483 0.57225,0.86853 0.15878,0.24371 0.41347,0.63921 0.57225,0.88802 0.15878,0.24881 0.41345,0.65142 0.57225,0.90528 0.15878,0.25387 0.41345,0.66534 0.57223,0.92435 0.15879,0.259 0.41347,0.67833 0.57225,0.94251 0.15879,0.26417 0.41347,0.69183 0.57226,0.96151 0.15878,0.2697 0.41346,0.70714 0.57225,0.9823 0.15878,0.27515 0.41346,0.72011 0.57225,1.0009 0.15878,0.2808 0.41346,0.73645 0.57225,1.02295 0.15878,0.2865 0.41345,0.74973 0.57223,1.04198 0.1588,0.29225 0.41347,0.76608 0.57225,1.06447 0.15878,0.29838 0.41347,0.78172 0.57225,1.0861 0.15879,0.3044 0.41347,0.79718 0.57225,1.10775 0.15879,0.31056 0.41347,0.81372 0.57225,1.13064 0.15879,0.31693 0.41347,0.83018 0.57225,1.1536 0.15879,0.32339 0.41345,0.84735 0.57225,1.17735 0.15879,0.33 0.41346,0.86456 0.57224,1.20116 0.1588,0.33661 0.41346,0.88137 0.57225,1.22494 0.15878,0.34357 0.41347,0.90074 0.57225,1.25134 0.15878,0.35059 0.41346,0.91776 0.57225,1.27555 0.15878,0.3578 0.41347,0.93824 0.57225,1.30325 0.15878,0.36501 0.41346,0.95502 0.57225,1.32745 0.15878,0.37244 0.41345,0.97681 0.57225,1.35688 0.15878,0.38006 0.41346,0.99452 0.57224,1.38238 0.15878,0.38787 0.41346,1.0172 0.57225,1.4131 0.15878,0.39591 0.41347,1.03659 0.57225,1.44036 0.15878,0.40376 0.41346,1.05782 0.57225,1.46975 0.15878,0.41193 0.41347,1.0788 0.57225,1.49919 0.15878,0.4204 0.41345,1.1016 0.57223,1.53075 0.15879,0.42915 0.41345,1.12454 0.57224,1.56233 0.1588,0.43778 0.41347,1.14655 0.57225,1.59304 0.15878,0.4465 0.41347,1.16919 0.57225,1.62504 0.15878,0.45587 0.41347,1.19519 0.57225,1.66052 0.15878,0.46534 0.41347,1.21874 0.57225,1.69338 0.15878,0.47464 0.41347,1.24342 0.57225,1.72755 0.15878,0.48412 0.41345,1.26758 0.57225,1.76172 0.15878,0.49415 0.41345,1.29569 0.57224,1.79981 0.15879,0.5041 0.41346,1.31915 0.57225,1.83352 0.15878,0.51438 0.41346,1.34876 0.57225,1.87377 0.15878,0.52499 0.41346,1.37446 0.57225,1.91008 0.15878,0.53561 0.41346,1.40376 0.57225,1.9503 0.15878,0.54654 0.41346,1.43094 0.57225,1.98881 0.15878,0.55788 0.41345,1.46279 0.57225,2.03206 0.15878,0.5693 0.41345,1.49019 0.57223,2.071 0.15878,0.58081 0.41347,1.52248 0.57225,2.11512 0.15879,0.59263 0.41347,1.55181 0.57225,2.1562 0.15878,0.60438 0.41347,1.58276 0.57225,2.19988 0.15879,0.6171 0.41347,1.61813 0.57225,2.2479 0.15878,0.62978 0.41347,1.64885 0.57225,2.29117 0.15879,0.64231 0.41346,1.68265 0.57224,2.33829 0.15879,0.65564 0.41347,1.7184 0.57225,2.38718 0.15878,0.66879 0.41347,1.75061 0.57225,2.43301 0.15879,0.68242 0.41347,1.78868 0.57225,2.48538 0.15878,0.69669 0.57225,2.53597 0.57225,2.53597"
       style="fill:none;stroke:#cc6600;stroke-width:0.79701;stroke-linecap:butt;stroke-linejoin:miter;stroke-miterlimit:10;stroke-dasharray:none;stroke-opacity:1"
       transform="matrix(1.3333333,0,0,-1.3333333,19.429333,206.4)" />
    <path
       id="path8"
       d="m 11.33855,37.85095 c 0,0 0.16531,0.36785 0.2288,0.50911 0.06348,0.14125 0.16533,0.36783 0.22881,0.50908 0.06349,0.14125 0.16533,0.36777 0.2288,0.50909 0.0635,0.14135 0.16534,0.36823 0.22882,0.50956 0.0635,0.14131 0.16533,0.36781 0.22881,0.50908 0.06349,0.14125 0.16534,0.36776 0.22882,0.50909 0.06349,0.14134 0.16533,0.36821 0.22881,0.50954 0.06349,0.14134 0.16534,0.36784 0.22882,0.5091 0.06349,0.14126 0.16533,0.36783 0.2288,0.50909 0.06349,0.14125 0.16535,0.36776 0.22882,0.50909 0.0635,0.14134 0.16533,0.36821 0.22881,0.50955 0.06349,0.14133 0.16534,0.36783 0.22882,0.5091 0.06349,0.14125 0.16533,0.36782 0.22881,0.50907 0.06349,0.14127 0.16534,0.36777 0.22882,0.5091 0.06348,0.14134 0.16532,0.36821 0.2288,0.50955 0.06348,0.14133 0.16533,0.36785 0.22882,0.5091 0.06348,0.14125 0.16532,0.36776 0.22881,0.50907 0.06347,0.14133 0.16533,0.36821 0.22882,0.50956 0.06348,0.14132 0.16531,0.36782 0.2288,0.50909 0.06348,0.14125 0.16533,0.36783 0.22883,0.50908 0.06347,0.14127 0.16531,0.36777 0.2288,0.50909 0.06348,0.14135 0.16533,0.36821 0.22882,0.50956 0.06348,0.14132 0.16531,0.36784 0.22881,0.50909 0.06347,0.14125 0.16533,0.36777 0.22882,0.50908 0.06347,0.14133 0.16531,0.36821 0.2288,0.50955 0.06348,0.14133 0.16533,0.36781 0.22882,0.5091 0.06348,0.14126 0.16532,0.36784 0.22881,0.50909 0.06348,0.14127 0.16533,0.36777 0.22881,0.50908 0.06349,0.14133 0.16532,0.36821 0.2288,0.50955 0.06349,0.14133 0.16534,0.36783 0.22882,0.50909 0.06349,0.14127 0.16533,0.36785 0.22881,0.5091 0.06349,0.14127 0.16534,0.36777 0.22882,0.50909 0.06349,0.14131 0.16533,0.3682 0.2288,0.50954 0.0635,0.14133 0.16535,0.36784 0.22882,0.50909 0.0635,0.14127 0.16534,0.36777 0.22881,0.50908 0.06349,0.14133 0.16534,0.36821 0.22882,0.50956 0.06349,0.14132 0.16533,0.36782 0.22881,0.50909 0.06349,0.14127 0.16534,0.36784 0.22882,0.50909 0.06349,0.14127 0.16533,0.36777 0.2288,0.5091 0.06348,0.14131 0.16535,0.36819 0.22882,0.50953 0.06348,0.14133 0.16533,0.36783 0.22881,0.5091 0.06348,0.14128 0.16533,0.36778 0.22882,0.5091 0.06348,0.14132 0.16531,0.3682 0.2288,0.50953 0.06348,0.14131 0.16533,0.36783 0.22883,0.50909 0.06347,0.14127 0.16531,0.36783 0.2288,0.5091 0.06348,0.14128 0.16533,0.36778 0.22882,0.50911 0.06348,0.14131 0.16532,0.36819 0.22881,0.50952 0.06347,0.14131 0.16533,0.36783 0.22882,0.50909 0.06348,0.14128 0.16531,0.36789 0.2288,0.5091 0.06348,0.14122 0.16533,0.3674 0.22882,0.50866 0.06348,0.14126 0.16532,0.36821 0.22881,0.50953 0.06348,0.14131 0.16533,0.36782 0.22882,0.50909 0.06348,0.14128 0.16531,0.36778 0.22879,0.50911 0.06349,0.14131 0.16535,0.36821 0.22882,0.50952 0.06349,0.14131 0.16533,0.36783 0.22881,0.5091 0.06349,0.14128 0.16534,0.36782 0.22882,0.50911 0.06349,0.14126 0.16533,0.36776 0.2288,0.50909 0.0635,0.14131 0.16535,0.36821 0.22882,0.50952 0.0635,0.14131 0.16534,0.36783 0.22881,0.5091 0.06349,0.14128 0.16534,0.36776 0.22882,0.5091 0.06349,0.14133 0.16533,0.36823 0.22881,0.50954 0.06349,0.14131 0.16534,0.36783 0.22882,0.50908 0.06349,0.14127 0.16533,0.36783 0.2288,0.50911 0.06349,0.14127 0.16535,0.36777 0.22882,0.5091 0.0635,0.1413 0.16533,0.3682 0.22881,0.50952 0.06348,0.14131 0.16535,0.36782 0.22882,0.50909 0.06348,0.14128 0.16531,0.36783 0.22881,0.50911 0.06347,0.14127 0.16532,0.36778 0.22882,0.50909 0.06347,0.14132 0.16531,0.36821 0.2288,0.50952 0.06348,0.14133 0.16533,0.36783 0.22882,0.50911 0.06348,0.14127 0.16532,0.36777 0.22881,0.5091 0.06347,0.14133 0.16533,0.36822 0.22882,0.50954 0.06348,0.14131 0.16531,0.36782 0.2288,0.50907 0.06348,0.14127 0.16533,0.36783 0.22883,0.50911 0.06347,0.14127 0.16531,0.36777 0.2288,0.5091 0.06348,0.14133 0.16533,0.36822 0.22882,0.50954 0.06348,0.14132 0.16532,0.36782 0.2288,0.50909 0.06348,0.14125 0.16534,0.36777 0.22883,0.50909 0.06347,0.14133 0.16531,0.36823 0.22879,0.50954 0.06349,0.14131 0.16534,0.36783 0.22882,0.50908 0.06349,0.14126 0.16533,0.36783 0.2288,0.50911 0.0635,0.14126 0.16535,0.36777 0.22883,0.50909 0.06349,0.14133 0.16533,0.36823 0.2288,0.50954 0.06349,0.14133 0.16535,0.36783 0.22882,0.50909 0.06349,0.14125 0.16533,0.36777 0.22881,0.5091 0.06349,0.14132 0.16534,0.36821 0.22882,0.50953 0.06349,0.14133 0.16533,0.36785 0.2288,0.5091 0.0635,0.14126 0.16535,0.36783 0.22882,0.50909 0.0635,0.14125 0.16533,0.36777 0.22881,0.5091 0.06349,0.14132 0.16535,0.36821 0.22882,0.50953 0.06349,0.14135 0.16533,0.36785 0.22881,0.50912 0.06347,0.14124 0.16534,0.3678 0.22882,0.50907 0.06347,0.14125 0.16531,0.36777 0.2288,0.5091 0.06348,0.14134 0.16533,0.36822 0.22882,0.50953 0.06348,0.14133 0.16532,0.36783 0.22881,0.5091 0.06347,0.14125 0.16533,0.36777 0.22882,0.50909 0.06348,0.14133 0.16531,0.36821 0.22881,0.50954 0.06347,0.14134 0.16532,0.36784 0.22882,0.50911 0.06347,0.14125 0.2288,0.50908 0.2288,0.50908"
       style="fill:none;stroke:#ec008c;stroke-width:0.79701;stroke-linecap:butt;stroke-linejoin:miter;stroke-miterlimit:10;stroke-dasharray:none;stroke-opacity:1"
       transform="matrix(1.3333333,0,0,-1.3333333,19.429333,206.4)" />
    <g
       id="g8"
       aria-label="y=e&#10;x"
       transform="matrix(1.3333333,0,0,1.3333333,80.814667,58.338667)">
      <path
         id="path9"
         d="m 4.8411484,-3.7959922 c 0.046875,-0.140625 0.046875,-0.1523437 0.046875,-0.2226562 0,-0.1875 -0.140625,-0.2695313 -0.2929687,-0.2695313 -0.1054688,0 -0.2578125,0.058594 -0.3515625,0.1992188 -0.023437,0.058594 -0.09375,0.3632812 -0.140625,0.5390625 -0.070312,0.2578125 -0.140625,0.5273437 -0.1992188,0.796875 l -0.4453125,1.79296871 c -0.035156,0.15234375 -0.46875,0.85546875 -1.125,0.85546875 -0.5039062,0 -0.6210937,-0.4453125 -0.6210937,-0.80859375 0,-0.45703121 0.1757812,-1.07812501 0.515625,-1.95703121 0.1523437,-0.4101563 0.1992187,-0.515625 0.1992187,-0.7148438 0,-0.4453125 -0.328125,-0.8203125 -0.8203125,-0.8203125 -0.94921871,0 -1.31249996,1.453125 -1.31249996,1.5351563 0,0.1054687 0.09375,0.1054687 0.1171875,0.1054687 0.09375,0 0.10546875,-0.023437 0.15234375,-0.1875 0.26953125,-0.9375 0.66796871,-1.2304687 1.00781251,-1.2304687 0.082031,0 0.2578125,0 0.2578125,0.3164062 0,0.2460938 -0.1054688,0.515625 -0.1757813,0.703125 -0.3984375,1.0546875 -0.5742187,1.6171875 -0.5742187,2.0859375 0,0.89062501 0.6210937,1.18359376 1.21875,1.18359376 0.3867187,0 0.7265625,-0.1640625 0.9960937,-0.4453125 -0.1289062,0.515625 -0.2460937,1.0078125 -0.6445312,1.53515624 -0.2578125,0.3398438 -0.6328125,0.6328125 -1.0898438,0.6328125 -0.140625,0 -0.59765621,-0.035156 -0.76171871,-0.421875 0.1640625,0 0.29296871,0 0.43359371,-0.1171875 0.09375,-0.09375 0.1992188,-0.2226562 0.1992188,-0.41015624 0,-0.31640625 -0.2695313,-0.3515625 -0.375,-0.3515625 -0.22265626,0 -0.55078126,0.1640625 -0.55078126,0.64453124 0,0.5039063 0.43359375,0.8671875 1.05468746,0.8671875 1.0195313,0 2.0507813,-0.9023437 2.3320313,-2.02734374 z m 0,0"
         style="fill:#cc6600;fill-opacity:1;fill-rule:nonzero;stroke:none" />
      <path
         id="path10"
         d="m 14.85775,-3.2569297 c 0.152344,0 0.339844,0 0.339844,-0.1992187 0,-0.1992188 -0.1875,-0.1992188 -0.328125,-0.1992188 H 8.904625 c -0.140625,0 -0.328125,0 -0.328125,0.1992188 0,0.1992187 0.1875,0.1992187 0.3398437,0.1992187 z m 0.01172,1.9335938 c 0.140625,0 0.328125,0 0.328125,-0.1992188 0,-0.1992187 -0.1875,-0.1992187 -0.339844,-0.1992187 H 8.9163437 c -0.1523437,0 -0.3398437,0 -0.3398437,0.1992187 0,0.1992188 0.1875,0.1992188 0.328125,0.1992188 z m 0,0"
         style="fill:#cc6600;fill-opacity:1;fill-rule:nonzero;stroke:none" />
      <path
         id="path11"
         d="m 20.38607,-2.2959922 c 0.292969,0 1.03125,-0.023437 1.523438,-0.234375 0.703125,-0.2929687 0.75,-0.890625 0.75,-1.0195312 0,-0.4453125 -0.386719,-0.8554688 -1.066406,-0.8554688 -1.113282,0 -2.613282,0.9726563 -2.613282,2.7070313 0,1.01953121 0.585938,1.80468746 1.570313,1.80468746 1.417969,0 2.261719,-1.0546875 2.261719,-1.17187496 0,-0.058594 -0.07031,-0.1289063 -0.128907,-0.1289063 -0.04687,0 -0.07031,0.023437 -0.128906,0.09375 -0.785156,0.99609376 -1.875,0.99609376 -1.992187,0.99609376 -0.773438,0 -0.867188,-0.84375 -0.867188,-1.16015626 0,-0.1171875 0.01172,-0.4335937 0.164063,-1.03125 z m -0.46875,-0.2226562 c 0.386719,-1.5117188 1.417969,-1.6640625 1.675782,-1.6640625 0.46875,0 0.738281,0.2929687 0.738281,0.6328125 0,1.03125 -1.59375,1.03125 -2.003906,1.03125 z m 0,0"
         style="fill:#cc6600;fill-opacity:1;fill-rule:nonzero;stroke:none" />
      <path
         id="path12"
         d="m 24.897789,-4.3526328 c -0.07031,0.234375 -0.292969,0.609375 -0.65625,0.609375 -0.02344,0 -0.222656,0 -0.375,-0.09375 0.28125,-0.09375 0.304688,-0.3398438 0.304688,-0.3867188 0,-0.1523437 -0.117188,-0.2578125 -0.28125,-0.2578125 -0.1875,0 -0.386719,0.1640625 -0.386719,0.4335938 0,0.3398437 0.386719,0.5039062 0.726562,0.5039062 0.316407,0 0.609375,-0.1992187 0.785157,-0.4921875 0.164062,0.3632813 0.550781,0.4921875 0.820312,0.4921875 0.808594,0 1.230469,-0.8671875 1.230469,-1.0664062 0,-0.09375 -0.09375,-0.09375 -0.105469,-0.09375 -0.105469,0 -0.105469,0.035156 -0.140625,0.1171875 -0.140625,0.4804687 -0.5625,0.84375 -0.949219,0.84375 -0.28125,0 -0.421875,-0.1875 -0.421875,-0.4453125 0,-0.1875 0.164063,-0.8203125 0.363282,-1.59375 0.128906,-0.5390625 0.445312,-0.7148438 0.679687,-0.7148438 0.01172,0 0.222656,0 0.375,0.1054688 -0.222656,0.058594 -0.304687,0.2578125 -0.304687,0.375 0,0.1523437 0.117187,0.2578125 0.28125,0.2578125 0.152343,0 0.386718,-0.1289063 0.386718,-0.421875 0,-0.3867188 -0.445312,-0.5039063 -0.726562,-0.5039063 -0.351563,0 -0.632813,0.2226563 -0.785156,0.4921875 -0.117188,-0.2929687 -0.445313,-0.4921875 -0.832032,-0.4921875 -0.785156,0 -1.230468,0.8554688 -1.230468,1.0664063 0,0.082031 0.105468,0.082031 0.117187,0.082031 0.09375,0 0.105469,-0.023437 0.140625,-0.1171875 0.175781,-0.5390625 0.609375,-0.84375 0.949219,-0.84375 0.234375,0 0.421875,0.1289063 0.421875,0.46875 0,0.1289063 -0.08203,0.4804688 -0.152344,0.7148438 z m 0,0"
         style="fill:#cc6600;fill-opacity:1;fill-rule:nonzero;stroke:none" />
    </g>
    <path
       id="path13"
       d="m 3.3294453,-3.0113437 c 0.058594,-0.2578125 0.2929688,-1.171875 0.984375,-1.171875 0.046875,0 0.2929688,0 0.5039063,0.1289062 -0.28125,0.046875 -0.4804688,0.3046875 -0.4804688,0.5390625 0,0.1640625 0.1054688,0.3515625 0.375,0.3515625 0.2226563,0 0.5390625,-0.1875 0.5390625,-0.5859375 0,-0.515625 -0.5859375,-0.65625 -0.9257812,-0.65625 -0.5742188,0 -0.9257813,0.5273438 -1.0429688,0.7617188 -0.2578125,-0.65625 -0.7851562,-0.7617188 -1.078125,-0.7617188 -1.0429687,0 -1.60546874,1.2890625 -1.60546874,1.5351563 0,0.1054687 0.10546875,0.1054687 0.1171875,0.1054687 0.0820313,0 0.1171875,-0.023437 0.12890625,-0.1171875 0.33984379,-1.0546875 0.99609379,-1.3007812 1.33593749,-1.3007812 0.1875,0 0.5390625,0.09375 0.5390625,0.6679687 0,0.3046875 -0.1640625,0.9726563 -0.5390625,2.3671875 -0.1523437,0.62109375 -0.5039062,1.04296875 -0.9492187,1.04296875 -0.058594,0 -0.28125004,0 -0.49218754,-0.12890625 0.24609375,-0.0585937 0.46875004,-0.26953125 0.46875004,-0.5390625 0,-0.2695312 -0.22265629,-0.3515625 -0.37500004,-0.3515625 -0.29296875,0 -0.5390625,0.2578125 -0.5390625,0.57421875 0,0.45703125 0.4921875,0.65625 0.93750004,0.65625 0.65625,0 1.0078125,-0.69140625 1.0429687,-0.75 0.1171875,0.36328125 0.4804688,0.75 1.078125,0.75 1.0195313,0 1.59375,-1.27734375 1.59375,-1.53515625 0,-0.09375 -0.09375,-0.09375 -0.1289062,-0.09375 -0.082031,0 -0.1054688,0.035156 -0.1289063,0.1054688 -0.328125,1.0664062 -0.9960937,1.31249995 -1.3242187,1.31249995 -0.3867188,0 -0.5390625,-0.328125 -0.5390625,-0.65625 0,-0.22265625 0.058594,-0.44531245 0.1640625,-0.87890625 z m 0,0"
       style="fill:#009900;fill-opacity:1;fill-rule:nonzero;stroke:none"
       aria-label="x"
       transform="matrix(1.3333333,0,0,1.3333333,45.869333,216.812)" />
    <path
       id="path14"
       d="m 4.8394141,-3.7962734 c 0.046875,-0.140625 0.046875,-0.1523438 0.046875,-0.2226563 0,-0.1875 -0.140625,-0.2695312 -0.2929688,-0.2695312 -0.1054687,0 -0.2578125,0.058594 -0.3515625,0.1992187 -0.023437,0.058594 -0.09375,0.3632813 -0.140625,0.5390625 -0.070312,0.2578125 -0.140625,0.5273438 -0.1992187,0.796875 l -0.4453125,1.79296876 c -0.035156,0.15234375 -0.46875,0.85546875 -1.125,0.85546875 -0.5039063,0 -0.6210938,-0.4453125 -0.6210938,-0.80859375 0,-0.45703126 0.1757813,-1.07812496 0.515625,-1.95703126 0.1523438,-0.4101562 0.1992188,-0.515625 0.1992188,-0.7148437 0,-0.4453125 -0.328125,-0.8203125 -0.8203125,-0.8203125 -0.94921879,0 -1.31250004,1.453125 -1.31250004,1.5351562 0,0.1054688 0.09375,0.1054688 0.1171875,0.1054688 0.09375,0 0.10546875,-0.023437 0.15234375,-0.1875 0.26953125,-0.9375 0.66796879,-1.2304688 1.00781249,-1.2304688 0.082031,0 0.2578125,0 0.2578125,0.3164063 0,0.2460937 -0.1054687,0.515625 -0.1757812,0.703125 -0.3984375,1.0546875 -0.5742188,1.6171875 -0.5742188,2.0859375 0,0.89062496 0.6210938,1.18359371 1.21875,1.18359371 0.3867188,0 0.7265625,-0.1640625 0.9960938,-0.4453125 -0.1289063,0.515625 -0.2460938,1.0078125 -0.6445313,1.53515629 -0.2578125,0.3398437 -0.6328125,0.6328125 -1.0898437,0.6328125 -0.140625,0 -0.59765629,-0.035156 -0.76171879,-0.421875 0.1640625,0 0.29296879,0 0.43359379,-0.1171875 0.09375,-0.09375 0.1992187,-0.2226563 0.1992187,-0.41015629 0,-0.31640625 -0.2695312,-0.3515625 -0.375,-0.3515625 -0.22265624,0 -0.55078124,0.1640625 -0.55078124,0.64453129 0,0.5039062 0.43359375,0.8671875 1.05468754,0.8671875 1.0195312,0 2.0507812,-0.9023438 2.3320312,-2.02734379 z m 0,0"
       style="fill:#009900;fill-opacity:1;fill-rule:nonzero;stroke:none"
       aria-label="y"
       transform="matrix(1.3333333,0,0,1.3333333,7.7466667,123.85467)" />
    <path
       id="path15"
       d="M 22.67752,0 V 63.08522"
       style="fill:none;stroke:#009900;stroke-width:0.3985;stroke-linecap:butt;stroke-linejoin:miter;stroke-miterlimit:10;stroke-dasharray:2.98883, 2.98883;stroke-dashoffset:0;stroke-opacity:1"
       transform="matrix(1.3333333,0,0,-1.3333333,19.429333,206.4)" />
    <path
       id="path16"
       d="M 22.67752,63.08522 H 0"
       style="fill:none;stroke:#009900;stroke-width:0.3985;stroke-linecap:butt;stroke-linejoin:miter;stroke-miterlimit:10;stroke-dasharray:2.98883, 2.98883;stroke-dashoffset:0;stroke-opacity:1"
       transform="matrix(1.3333333,0,0,-1.3333333,19.429333,206.4)" />
    <path
       id="path17"
       d="M 28.3468,0 V 77.0536"
       style="fill:none;stroke:#ff4c00;stroke-width:0.3985;stroke-linecap:butt;stroke-linejoin:miter;stroke-miterlimit:10;stroke-dasharray:2.98883, 2.98883;stroke-dashoffset:0;stroke-opacity:1"
       transform="matrix(1.3333333,0,0,-1.3333333,19.429333,206.4)" />
    <path
       id="path18"
       d="M 0,77.0536 H 28.3468"
       style="fill:none;stroke:#ff4c00;stroke-width:0.3985;stroke-linecap:butt;stroke-linejoin:miter;stroke-miterlimit:10;stroke-dasharray:2.98883, 2.98883;stroke-dashoffset:0;stroke-opacity:1"
       transform="matrix(1.3333333,0,0,-1.3333333,19.429333,206.4)" />
    <path
       id="path19"
       d="m 22.67752,22.67752 h 2.42423"
       style="fill:none;stroke:#ff4c00;stroke-width:0.79701;stroke-linecap:butt;stroke-linejoin:miter;stroke-miterlimit:10;stroke-dasharray:none;stroke-opacity:1"
       transform="matrix(1.3333333,0,0,-1.3333333,19.429333,206.4)" />
    <path
       id="path20"
       d="M 4.66248,0 C 3.28098,0.25902 1.0361,1.0361 -0.51805,1.94269 V -1.94269 C 1.0361,-1.0361 3.28098,-0.25902 4.66248,0"
       style="fill:#ff4c00;fill-opacity:1;fill-rule:nonzero;stroke:none"
       transform="matrix(1.3333333,0,0,-1.3333333,52.898333,176.16331)" />
    <g
       id="g20"
       aria-label="∆x"
       transform="matrix(1.3333333,0,0,1.3333333,61.917333,180.70133)">
      <path
         id="path21"
         d="m 4.4067266,-6.947875 c -0.070312,-0.1289062 -0.09375,-0.1875 -0.2578125,-0.1875 -0.1757813,0 -0.1992188,0.058594 -0.2578125,0.1875 l -3.37500004,6.75 c -0.046875,0.09375 -0.046875,0.10546875 -0.046875,0.1171875 0,0.08203125 0.0585937,0.08203125 0.22265625,0.08203125 H 7.6059453 c 0.1523438,0 0.2109375,0 0.2109375,-0.08203125 0,-0.01171875 0,-0.0234375 -0.046875,-0.1171875 z M 3.8207891,-6.1392812 6.5043828,-0.760375 H 1.1371953 Z m 0,0"
         style="fill:#ff4c00;fill-opacity:1;fill-rule:nonzero;stroke:none" />
      <path
         id="path22"
         d="m 11.631336,-3.010375 c 0.05859,-0.2578125 0.292969,-1.171875 0.984375,-1.171875 0.04687,0 0.292969,0 0.503906,0.1289063 -0.28125,0.046875 -0.480469,0.3046875 -0.480469,0.5390625 0,0.1640625 0.105469,0.3515625 0.375,0.3515625 0.222657,0 0.539063,-0.1875 0.539063,-0.5859375 0,-0.515625 -0.585938,-0.65625 -0.925781,-0.65625 -0.574219,0 -0.925782,0.5273437 -1.042969,0.7617187 -0.257813,-0.65625 -0.785156,-0.7617187 -1.078125,-0.7617187 -1.0429688,0 -1.6054688,1.2890625 -1.6054688,1.5351562 0,0.1054688 0.1054687,0.1054688 0.1171875,0.1054688 0.082031,0 0.1171875,-0.023437 0.1289062,-0.1171875 0.3398438,-1.0546875 0.9960941,-1.3007813 1.3359371,-1.3007813 0.1875,0 0.539063,0.09375 0.539063,0.6679688 0,0.3046875 -0.164063,0.9726562 -0.539063,2.3671875 C 10.330555,-0.526 9.9789922,-0.104125 9.5336797,-0.104125 c -0.058594,0 -0.28125,0 -0.4921875,-0.12890625 0.2460937,-0.0585938 0.46875,-0.26953125 0.46875,-0.5390625 0,-0.26953125 -0.2226563,-0.35156245 -0.375,-0.35156245 -0.2929688,0 -0.5390625,0.25781245 -0.5390625,0.5742187 0,0.45703125 0.4921875,0.65625 0.9375,0.65625 0.6562503,0 1.0078123,-0.69140625 1.0429683,-0.75 0.117188,0.36328125 0.480469,0.75 1.078125,0.75 1.019532,0 1.59375,-1.2773437 1.59375,-1.5351562 0,-0.09375 -0.09375,-0.09375 -0.128906,-0.09375 -0.08203,0 -0.105469,0.035156 -0.128906,0.1054687 -0.328125,1.06640625 -0.996094,1.3125 -1.324219,1.3125 -0.386719,0 -0.539062,-0.328125 -0.539062,-0.65625 0,-0.22265625 0.05859,-0.4453125 0.164062,-0.8789062 z m 0,0"
         style="fill:#ff4c00;fill-opacity:1;fill-rule:nonzero;stroke:none" />
    </g>
    <path
       id="path23"
       d="m 11.33855,63.08522 v 9.30591"
       style="fill:none;stroke:#ff4c00;stroke-width:0.79701;stroke-linecap:butt;stroke-linejoin:miter;stroke-miterlimit:10;stroke-dasharray:none;stroke-opacity:1"
       transform="matrix(1.3333333,0,0,-1.3333333,19.429333,206.4)" />
    <path
       id="path24"
       d="M 4.66248,0 C 3.28098,0.25902 1.0361,1.0361 -0.51805,1.94269 V -1.94269 C 1.0361,-1.0361 3.28098,-0.25902 4.66248,0"
       style="fill:#ff4c00;fill-opacity:1;fill-rule:nonzero;stroke:none"
       transform="matrix(0,-1.3333333,-1.3333333,0,34.5474,109.87849)" />
    <g
       id="g24"
       aria-label="∆y"
       transform="matrix(1.3333333,0,0,1.3333333,25.517333,96.386667)">
      <path
         id="path25"
         d="m 4.4049688,-6.9491797 c -0.070312,-0.1289062 -0.09375,-0.1875 -0.2578125,-0.1875 -0.1757813,0 -0.1992188,0.058594 -0.2578125,0.1875 l -3.37500005,6.75000001 c -0.046875,0.09375 -0.046875,0.10546875 -0.046875,0.1171875 0,0.0820312525 0.0585938,0.0820312525 0.22265625,0.0820312525 h 6.9140625 c 0.1523438,0 0.2109375,0 0.2109375,-0.0820312525 0,-0.01171875 0,-0.0234375 -0.046875,-0.1171875 z M 3.8190313,-6.1405859 6.502625,-0.76167969 H 1.1354375 Z m 0,0"
         style="fill:#ff4c00;fill-opacity:1;fill-rule:nonzero;stroke:none" />
      <path
         id="path26"
         d="m 13.141297,-3.7968359 c 0.04687,-0.140625 0.04687,-0.1523438 0.04687,-0.2226563 0,-0.1875 -0.140625,-0.2695312 -0.292969,-0.2695312 -0.105469,0 -0.257812,0.058594 -0.351562,0.1992187 -0.02344,0.058594 -0.09375,0.3632813 -0.140625,0.5390625 -0.07031,0.2578125 -0.140625,0.5273438 -0.199219,0.796875 l -0.445313,1.79296876 c -0.03516,0.15234375 -0.46875,0.85546875 -1.125,0.85546875 -0.503906,0 -0.621093,-0.4453125 -0.621093,-0.80859375 0,-0.45703126 0.175781,-1.07812496 0.515625,-1.95703126 0.152343,-0.4101562 0.199218,-0.515625 0.199218,-0.7148437 0,-0.4453125 -0.328125,-0.8203125 -0.8203121,-0.8203125 -0.9492188,0 -1.3125,1.453125 -1.3125,1.5351562 0,0.1054688 0.09375,0.1054688 0.1171875,0.1054688 0.09375,0 0.1054687,-0.023437 0.1523437,-0.1875 0.2695313,-0.9375 0.6679688,-1.2304688 1.0078125,-1.2304688 0.082031,0 0.2578124,0 0.2578124,0.3164063 0,0.2460937 -0.105469,0.515625 -0.1757811,0.703125 -0.3984375,1.0546875 -0.5742188,1.6171875 -0.5742188,2.0859375 0,0.89062496 0.6210939,1.18359371 1.2187499,1.18359371 0.386719,0 0.726563,-0.1640625 0.996094,-0.4453125 -0.128906,0.515625 -0.246094,1.0078125 -0.644531,1.53515629 -0.257813,0.3398437 -0.632813,0.6328125 -1.0898441,0.6328125 -0.140625,0 -0.5976563,-0.035156 -0.7617188,-0.421875 0.1640625,0 0.2929688,0 0.4335938,-0.1171875 0.09375,-0.09375 0.1992187,-0.2226563 0.1992187,-0.41015629 0,-0.31640625 -0.2695312,-0.3515625 -0.375,-0.3515625 -0.2226562,0 -0.5507812,0.1640625 -0.5507812,0.64453129 0,0.5039062 0.4335937,0.8671875 1.0546875,0.8671875 1.0195311,0 2.0507811,-0.9023438 2.3320311,-2.02734379 z m 0,0"
         style="fill:#ff4c00;fill-opacity:1;fill-rule:nonzero;stroke:none" />
    </g>
  </g>
</svg>
