<?xml version="1.0" encoding="UTF-8" standalone="no"?>
<!-- Created with Inkscape (http://www.inkscape.org/) -->

<svg
   version="1.1"
   id="svg1"
   width="260.78799"
   height="136.58667"
   viewBox="0 0 260.78799 136.58667"
   xmlns="http://www.w3.org/2000/svg"
   xmlns:svg="http://www.w3.org/2000/svg">
  <defs
     id="defs1" />
  <g
     id="g1">
    <path
       id="path1"
       d="M 0,0 H 56.69362"
       style="fill:none;stroke:#000000;stroke-width:0.79701;stroke-linecap:butt;stroke-linejoin:miter;stroke-miterlimit:10;stroke-dasharray:none;stroke-opacity:1"
       transform="matrix(1.3333333,0,0,-1.3333333,33.485333,79.362667)" />
    <g
       id="g2"
       aria-label="x(t)"
       transform="matrix(1.3333333,0,0,1.3333333,22.125333,71.082667)">
      <path
         id="path2"
         d="m 3.327875,-3.0121953 c 0.058594,-0.2578125 0.2929687,-1.171875 0.984375,-1.171875 0.046875,0 0.2929687,0 0.5039062,0.1289062 -0.28125,0.046875 -0.4804687,0.3046875 -0.4804687,0.5390625 0,0.1640625 0.1054687,0.3515625 0.375,0.3515625 0.2226562,0 0.5390625,-0.1875 0.5390625,-0.5859375 0,-0.515625 -0.5859375,-0.65625 -0.9257813,-0.65625 -0.5742187,0 -0.9257812,0.5273438 -1.0429687,0.7617188 -0.2578125,-0.65625 -0.7851563,-0.7617188 -1.078125,-0.7617188 -1.0429688,0 -1.60546875,1.2890625 -1.60546875,1.5351563 0,0.1054687 0.10546875,0.1054687 0.1171875,0.1054687 0.0820313,0 0.1171875,-0.023437 0.12890625,-0.1171875 0.3398437,-1.0546875 0.9960937,-1.3007812 1.3359375,-1.3007812 0.1875,0 0.5390625,0.09375 0.5390625,0.6679687 0,0.3046875 -0.1640625,0.9726563 -0.5390625,2.3671875 -0.1523438,0.62109379 -0.5039063,1.04296879 -0.9492188,1.04296879 -0.058594,0 -0.28124995,0 -0.49218745,-0.12890625 0.24609375,-0.0585938 0.46874995,-0.26953125 0.46874995,-0.5390625 0,-0.26953124 -0.2226562,-0.35156254 -0.37499995,-0.35156254 -0.29296875,0 -0.5390625,0.25781254 -0.5390625,0.57421879 0,0.45703125 0.4921875,0.65625 0.93749995,0.65625 0.65625,0 1.0078125,-0.69140625 1.0429688,-0.75 0.1171875,0.36328125 0.4804687,0.75 1.078125,0.75 1.0195312,0 1.59375,-1.27734379 1.59375,-1.53515629 0,-0.09375 -0.09375,-0.09375 -0.1289063,-0.09375 -0.082031,0 -0.1054687,0.035156 -0.1289062,0.1054688 -0.328125,1.06640624 -0.9960938,1.31249999 -1.3242188,1.31249999 -0.3867187,0 -0.5390625,-0.328125 -0.5390625,-0.65625 0,-0.22265625 0.058594,-0.44531249 0.1640625,-0.87890629 z m 0,0"
         style="fill:#000000;fill-opacity:1;fill-rule:nonzero;stroke:none" />
      <path
         id="path3"
         d="m 8.9880312,2.3901484 c 0,-0.035156 0,-0.046875 -0.1640625,-0.2226562 -1.2421875,-1.25390626 -1.5703125,-3.12890626 -1.5703125,-4.6640625 0,-1.7226563 0.3867188,-3.4570313 1.6054688,-4.7109375 0.1289062,-0.1171875 0.1289062,-0.1289063 0.1289062,-0.1640625 0,-0.070312 -0.035156,-0.1054688 -0.09375,-0.1054688 -0.1054687,0 -0.9960937,0.6796875 -1.5820312,1.9453125 -0.515625,1.1015625 -0.6328125,2.203125 -0.6328125,3.0351563 0,0.7851562 0.1171875,1.99218749 0.65625,3.11718749 0.5976562,1.21875001 1.453125,1.87500001 1.5585937,1.87500001 0.058594,0 0.09375,-0.035156 0.09375,-0.1054688 z m 0,0"
         style="fill:#000000;fill-opacity:1;fill-rule:nonzero;stroke:none" />
      <path
         id="path4"
         d="m 11.618891,-3.9848516 h 0.9375 c 0.199218,0 0.304687,0 0.304687,-0.1992187 0,-0.1054688 -0.105469,-0.1054688 -0.28125,-0.1054688 h -0.878906 c 0.363281,-1.4179687 0.410156,-1.6171875 0.410156,-1.6757812 0,-0.1757813 -0.117187,-0.2695313 -0.292969,-0.2695313 -0.02344,0 -0.304687,0.011719 -0.398437,0.3515625 l -0.386719,1.59375 h -0.9375 c -0.1992186,0 -0.2929686,0 -0.2929686,0.1875 0,0.1171875 0.070312,0.1171875 0.2695316,0.1171875 h 0.878906 c -0.714844,2.8242188 -0.75,3.00000004 -0.75,3.17578129 0,0.5390625 0.375,0.9140625 0.914062,0.9140625 1.007813,0 1.582032,-1.45312499 1.582032,-1.53515629 0,-0.09375 -0.08203,-0.09375 -0.117188,-0.09375 -0.09375,0 -0.105469,0.023437 -0.152344,0.140625 -0.433593,1.03125004 -0.960937,1.27734379 -1.300781,1.27734379 -0.199219,0 -0.304687,-0.12890625 -0.304687,-0.45703125 0,-0.24609375 0.02344,-0.31640625 0.05859,-0.48046874 z m 0,0"
         style="fill:#000000;fill-opacity:1;fill-rule:nonzero;stroke:none" />
      <path
         id="path5"
         d="m 16.048578,-2.4965703 c 0,-0.7734375 -0.117187,-1.9804688 -0.65625,-3.1054688 -0.597656,-1.21875 -1.464844,-1.875 -1.558594,-1.875 -0.05859,0 -0.105468,0.046875 -0.105468,0.1054688 0,0.035156 0,0.046875 0.199218,0.234375 0.972657,0.984375 1.535157,2.5664062 1.535157,4.640625 0,1.71093749 -0.363282,3.45703124 -1.59375,4.7226562 -0.140625,0.1171875 -0.140625,0.1289063 -0.140625,0.1640625 0,0.058594 0.04687,0.1054688 0.105468,0.1054688 0.09375,0 0.996094,-0.6796875 1.582032,-1.94531251 0.503906,-1.1015625 0.632812,-2.20312499 0.632812,-3.04687499 z m 0,0"
         style="fill:#000000;fill-opacity:1;fill-rule:nonzero;stroke:none" />
    </g>
    <path
       id="path6"
       d="m 0.35282812,-6.8087656 v 0.3164062 h 0.234375 c 0.77343748,0 0.78515628,0.1054688 0.78515628,0.46875 v 5.25000002 c 0,0.3515625 -0.011719,0.46875 -0.78515628,0.46875 h -0.234375 V -1.71875e-4 H 3.9973594 c 1.6757812,0 3.046875,-1.476562525 3.046875,-3.351562525 0,-1.8867187 -1.3476563,-3.4570312 -3.046875,-3.4570312 z m 2.36718748,6.50390622 c -0.46875,0 -0.4921875,-0.0703125 -0.4921875,-0.3984375 V -6.0939219 c 0,-0.328125 0.023437,-0.3984375 0.4921875,-0.3984375 h 0.9960938 c 0.6210937,0 1.3007812,0.2109375 1.8164062,0.9257813 0.421875,0.5859375 0.515625,1.4414062 0.515625,2.2148437 0,1.1132813 -0.1875,1.7109375 -0.5507812,2.1914063 -0.1992188,0.26953122 -0.7617188,0.85546872 -1.7695313,0.85546872 z M 8.1721641,-3.4103281 c 0,2.0625 1.6054687,3.63281247 3.4570309,3.63281247 1.628907,0 2.601563,-1.38281247 2.601563,-2.54296877 0,-0.1054687 0,-0.1757812 -0.128906,-0.1757812 -0.105469,0 -0.105469,0.070312 -0.117188,0.1640625 -0.08203,1.42968747 -1.148437,2.23828122 -2.226562,2.23828122 -0.609375,0 -2.5664067,-0.33984375 -2.5664067,-3.30468752 0,-2.9765625 1.9453127,-3.3164062 2.5546877,-3.3164062 1.078125,0 1.96875,0.9023437 2.167969,2.3671875 0.02344,0.1289062 0.02344,0.1640625 0.164062,0.1640625 0.152344,0 0.152344,-0.035156 0.152344,-0.234375 v -2.3671875 c 0,-0.1640625 0,-0.234375 -0.105469,-0.234375 -0.03516,0 -0.08203,0 -0.164062,0.1171875 l -0.492188,0.7382812 c -0.375,-0.3632812 -0.878906,-0.8554687 -1.839844,-0.8554687 -1.8632809,0 -3.4570309,1.5820312 -3.4570309,3.609375 z m 14.0302729,1.1132812 h 2.777344 c 0.140625,0 0.328125,0 0.328125,-0.1992187 0,-0.1992188 -0.1875,-0.1992188 -0.328125,-0.1992188 h -2.777344 v -2.7890625 c 0,-0.1289062 0,-0.328125 -0.199218,-0.328125 -0.199219,0 -0.199219,0.1992188 -0.199219,0.328125 v 2.7890625 h -2.789063 c -0.140625,0 -0.328125,0 -0.328125,0.1992188 0,0.1992187 0.1875,0.1992187 0.328125,0.1992187 H 21.804 v 2.80078127 c 0,0.12890625 0,0.328125 0.199219,0.328125 0.199218,0 0.199218,-0.19921875 0.199218,-0.328125 z m 10.957032,-4.640625 c -0.04687,-0.1289062 -0.07031,-0.1992187 -0.222657,-0.1992187 -0.164062,0 -0.1875,0.058594 -0.246093,0.1992187 l -2.0625,5.96484377 c -0.175782,0.50390625 -0.574219,0.65625 -1.113282,0.66796875 v 0.304687505 c 0.234375,-0.011718755 0.65625,-0.035156255 1.019532,-0.035156255 0.304687,0 0.820312,0.0234375 1.148437,0.035156255 V -0.30485938 c -0.503906,0 -0.75,-0.2578125 -0.75,-0.515625 0,-0.0234375 0.01172,-0.12890625 0.02344,-0.140625 l 0.457031,-1.31250002 h 2.460937 l 0.527344,1.52343752 c 0.01172,0.046875 0.02344,0.10546875 0.02344,0.140625 0,0.3046875 -0.550782,0.3046875 -0.820313,0.3046875 v 0.304687505 c 0.351563,-0.035156255 1.054688,-0.035156255 1.429688,-0.035156255 0.433593,0 0.890625,0.01171875 1.300781,0.035156255 V -0.30485938 h -0.175781 c -0.597657,0 -0.738282,-0.0703125 -0.84375,-0.3984375 z m -0.527344,1.125 1.125,3.234375 h -2.238281 z m 4.324219,2.4023438 c 0,2.0625 1.605468,3.63281247 3.457031,3.63281247 1.628906,0 2.601562,-1.38281247 2.601562,-2.54296877 0,-0.1054687 0,-0.1757812 -0.128906,-0.1757812 -0.105469,0 -0.105469,0.070312 -0.117187,0.1640625 -0.08203,1.42968747 -1.148438,2.23828122 -2.226563,2.23828122 -0.609375,0 -2.566406,-0.33984375 -2.566406,-3.30468752 0,-2.9765625 1.945312,-3.3164062 2.554687,-3.3164062 1.078125,0 1.96875,0.9023437 2.167969,2.3671875 0.02344,0.1289062 0.02344,0.1640625 0.164063,0.1640625 0.152343,0 0.152343,-0.035156 0.152343,-0.234375 v -2.3671875 c 0,-0.1640625 0,-0.234375 -0.105468,-0.234375 -0.03516,0 -0.08203,0 -0.164063,0.1171875 l -0.492187,0.7382812 c -0.375,-0.3632812 -0.878907,-0.8554687 -1.839844,-0.8554687 -1.863281,0 -3.457031,1.5820312 -3.457031,3.609375 z m 0,0"
       style="fill:#994c00;fill-opacity:1;fill-rule:nonzero;stroke:none"
       aria-label="DC+AC"
       transform="matrix(1.3333333,0,0,1.3333333,4.428,93.398667)" />
    <path
       id="path7"
       d="M 56.69362,42.5202 V -42.5202"
       style="fill:none;stroke:#000000;stroke-width:0.79701;stroke-linecap:butt;stroke-linejoin:miter;stroke-miterlimit:10;stroke-dasharray:none;stroke-opacity:1"
       transform="matrix(1.3333333,0,0,-1.3333333,33.485333,79.362667)" />
    <path
       id="path8"
       d="m 85.04042,28.3468 h 56.69362 V 56.69359 H 85.04042 Z"
       style="fill:none;stroke:#000000;stroke-width:0.79701;stroke-linecap:butt;stroke-linejoin:miter;stroke-miterlimit:10;stroke-dasharray:none;stroke-opacity:1"
       transform="matrix(1.3333333,0,0,-1.3333333,33.485333,79.362667)" />
    <g
       id="g8"
       aria-label="a&#10;i"
       transform="matrix(1.3333333,0,0,1.3333333,178.944,15.188)">
      <path
         id="path9"
         d="m 3.7158281,-3.7620938 c -0.1757812,-0.375 -0.46875,-0.6445312 -0.9140625,-0.6445312 -1.171875,0 -2.40234372,1.4648437 -2.40234372,2.9179687 0,0.93750005 0.55078125,1.59375005 1.32421872,1.59375005 0.1992188,0 0.703125,-0.03515625 1.3007813,-0.73828125 0.070312,0.41015625 0.421875,0.73828125 0.9023437,0.73828125 0.3515625,0 0.5742188,-0.22265625 0.7382813,-0.5390625 C 4.8291094,-0.79725 4.9580156,-1.406625 4.9580156,-1.4300625 c 0,-0.09375 -0.082031,-0.09375 -0.1171875,-0.09375 -0.09375,0 -0.1054687,0.035156 -0.140625,0.1757812 -0.1640625,0.6445313 -0.3515625,1.24218755 -0.75,1.24218755 -0.2695312,0 -0.3046875,-0.2578125 -0.3046875,-0.45703125 0,-0.22265625 0.023437,-0.3046875 0.1289063,-0.7382813 C 3.8916094,-1.7230313 3.9033281,-1.8285 3.9970781,-2.2035 l 0.3515625,-1.3945313 c 0.070312,-0.28125 0.070312,-0.2929687 0.070312,-0.3398437 0,-0.1640625 -0.1171875,-0.2695313 -0.28125,-0.2695313 -0.2460937,0 -0.3867187,0.2226563 -0.4218745,0.4453125 z m -0.6445312,2.578125 c -0.046875,0.1757813 -0.046875,0.1992188 -0.1992188,0.3632813 -0.4453125,0.55078125 -0.84375,0.71484375 -1.125,0.71484375 -0.5039062,0 -0.6445312,-0.55078125 -0.6445312,-0.93750005 0,-0.5039062 0.328125,-1.7226562 0.5507812,-2.1796875 0.3046875,-0.5976562 0.7617188,-0.9609375 1.1601563,-0.9609375 0.6445312,0 0.7851562,0.8203125 0.7851562,0.8789063 0,0.058594 -0.023437,0.1171875 -0.035156,0.1640625 z m 0,0"
         style="fill:#000000;fill-opacity:1;fill-rule:nonzero;stroke:none" />
      <path
         id="path10"
         d="m 7.5273516,-2.8656094 c 0,-0.1054687 -0.082031,-0.2578125 -0.28125,-0.2578125 -0.1875,0 -0.3867188,0.1757813 -0.3867188,0.375 0,0.1171875 0.082031,0.2695313 0.2695313,0.2695313 0.2109375,0 0.3984375,-0.1992188 0.3984375,-0.3867188 z M 6.0976641,0.67345312 c -0.023437,0.09375 -0.058594,0.17578125 -0.058594,0.29296875 0,0.32812503 0.28125,0.59765623 0.6679688,0.59765623 0.6914062,0 0.9960937,-0.96093748 0.9960937,-1.06640623 0,-0.09375 -0.082031,-0.09375 -0.1054687,-0.09375 -0.1054688,0 -0.1054688,0.046875 -0.140625,0.1171875 C 7.3046953,1.0836094 7.0000078,1.3648594 6.7187578,1.3648594 c -0.140625,0 -0.1757812,-0.082031 -0.1757812,-0.2460938 0,-0.15234373 0.058594,-0.29296873 0.1171875,-0.44531248 0.070312,-0.1875 0.140625,-0.375 0.2226562,-0.55078125 0.058594,-0.1640625 0.3164063,-0.80859375 0.3398438,-0.890625 0.023437,-0.0703125 0.046875,-0.15234375 0.046875,-0.22265625 0,-0.32812502 -0.28125,-0.58593752 -0.6679688,-0.58593752 -0.6914062,0 -1.0078125,0.94921877 -1.0078125,1.06640627 0,0.0820313 0.09375,0.0820313 0.1171875,0.0820313 0.09375,0 0.1054688,-0.0351563 0.1289063,-0.10546875 0.1757812,-0.59765622 0.4804687,-0.85546872 0.7382812,-0.85546872 0.1171875,0 0.1757813,0.058594 0.1757813,0.2460938 0,0.16406242 -0.035156,0.26953117 -0.2109375,0.70312492 z m 0,0"
         style="fill:#000000;fill-opacity:1;fill-rule:nonzero;stroke:none" />
    </g>
    <path
       id="path11"
       d="M 0,0 H 25.176"
       style="fill:none;stroke:#000000;stroke-width:0.398;stroke-linecap:butt;stroke-linejoin:miter;stroke-miterlimit:10;stroke-dasharray:none;stroke-opacity:1"
       transform="matrix(1.3333333,0,0,-1.3333333,167.88267,20.854667)" />
    <g
       id="g11"
       aria-label="s+p&#10;i"
       transform="matrix(1.3333333,0,0,1.3333333,167.88267,33.286667)">
      <path
         id="path12"
         d="m 3.8907344,-3.7276953 c -0.2695313,0.011719 -0.46875,0.234375 -0.46875,0.4453125 0,0.140625 0.082031,0.2929687 0.3046875,0.2929687 0.2226562,0 0.4570312,-0.1640625 0.4570312,-0.5625 0,-0.4453125 -0.4335937,-0.8554687 -1.1835937,-0.8554687 -1.3125,0 -1.6875,1.0195312 -1.6875,1.453125 0,0.7851562 0.7382812,0.9257812 1.03125,0.9960937 0.515625,0.09375 1.03125,0.1992188 1.03125,0.75 0,0.25781254 -0.2226563,1.10156254 -1.4179688,1.10156254 -0.140625,0 -0.9140625,0 -1.13671872,-0.52734375 0.37500002,0.046875 0.62109372,-0.2578125 0.62109372,-0.52734379 0,-0.234375 -0.1523437,-0.3515625 -0.3632812,-0.3515625 -0.25781252,0 -0.56250002,0.2109375 -0.56250002,0.65625004 0,0.5625 0.57421872,0.9609375 1.42968752,0.9609375 1.6054687,0 2.0039062,-1.20703124 2.0039062,-1.65234374 0,-0.3515625 -0.1992187,-0.609375 -0.3164062,-0.7265625 -0.2695313,-0.28125 -0.5507813,-0.328125 -0.9960938,-0.421875 -0.3515625,-0.070312 -0.75,-0.140625 -0.75,-0.5976563 0,-0.28125 0.234375,-0.890625 1.1132813,-0.890625 0.2460937,0 0.75,0.070312 0.890625,0.4570313 z m 0,0"
         style="fill:#000000;fill-opacity:1;fill-rule:nonzero;stroke:none" />
      <path
         id="path13"
         d="m 10.96007,-2.2980078 h 2.777344 c 0.140625,0 0.328125,0 0.328125,-0.1992188 0,-0.1992187 -0.1875,-0.1992187 -0.328125,-0.1992187 H 10.96007 v -2.7890625 c 0,-0.1289063 0,-0.328125 -0.199218,-0.328125 -0.199219,0 -0.199219,0.1992187 -0.199219,0.328125 v 2.7890625 H 7.7725703 c -0.140625,0 -0.328125,0 -0.328125,0.1992187 0,0.1992188 0.1875,0.1992188 0.328125,0.1992188 h 2.7890627 v 2.80078124 c 0,0.12890625 0,0.328125 0.199219,0.328125 0.199218,0 0.199218,-0.19921875 0.199218,-0.328125 z m 0,0"
         style="fill:#000000;fill-opacity:1;fill-rule:nonzero;stroke:none" />
      <path
         id="path14"
         d="m 17.288195,1.2176172 c -0.08203,0.3398437 -0.09375,0.4101562 -0.539062,0.4101562 -0.117188,0 -0.222656,0 -0.222656,0.1875 0,0.082031 0.04687,0.1171875 0.128906,0.1171875 0.269531,0 0.550781,-0.035156 0.832031,-0.035156 0.328125,0 0.667969,0.035156 0.984375,0.035156 0.05859,0 0.1875,0 0.1875,-0.1992187 0,-0.1054688 -0.105469,-0.1054688 -0.246094,-0.1054688 -0.492187,0 -0.492187,-0.070312 -0.492187,-0.1640625 0,-0.1171875 0.421875,-1.74609371 0.480469,-1.99218746 0.140625,0.29296875 0.410156,0.6328125 0.925781,0.6328125 1.148437,0 2.402344,-1.45312504 2.402344,-2.91796874 0,-0.9375 -0.574219,-1.59375 -1.335938,-1.59375 -0.492187,0 -0.972656,0.3632812 -1.300781,0.75 -0.09375,-0.5390625 -0.527344,-0.75 -0.890625,-0.75 -0.457031,0 -0.65625,0.3867187 -0.738281,0.5742187 -0.1875,0.3398438 -0.316407,0.9375 -0.316407,0.9609375 0,0.1054688 0.105469,0.1054688 0.128907,0.1054688 0.09375,0 0.105468,-0.011719 0.164062,-0.234375 0.164063,-0.703125 0.363281,-1.1835938 0.726563,-1.1835938 0.175781,0 0.304687,0.082031 0.304687,0.4570313 0,0.234375 -0.02344,0.3398437 -0.07031,0.5039062 z m 1.757813,-4.3242188 c 0.07031,-0.2695312 0.339844,-0.5507812 0.515625,-0.703125 0.351562,-0.3046875 0.632812,-0.375 0.808594,-0.375 0.398437,0 0.632812,0.3515625 0.632812,0.9375 0,0.5859375 -0.328125,1.734375 -0.503906,2.109375 -0.339844,0.70312504 -0.820313,1.03125004 -1.183594,1.03125004 -0.65625,0 -0.785156,-0.83203125 -0.785156,-0.890625 0,-0.0234375 0,-0.0351562 0.02344,-0.16406254 z m 0,0"
         style="fill:#000000;fill-opacity:1;fill-rule:nonzero;stroke:none" />
      <path
         id="path15"
         d="m 24.120227,-2.8634375 c 0,-0.1054688 -0.08203,-0.2578125 -0.28125,-0.2578125 -0.1875,0 -0.386719,0.1757812 -0.386719,0.375 0,0.1171875 0.08203,0.2695312 0.269531,0.2695312 0.210938,0 0.398438,-0.1992187 0.398438,-0.3867187 z M 22.690539,0.675625 c -0.02344,0.09375 -0.05859,0.17578125 -0.05859,0.29296875 0,0.32812495 0.28125,0.59765625 0.667969,0.59765625 0.691406,0 0.996094,-0.9609375 0.996094,-1.06640625 0,-0.09375 -0.08203,-0.09375 -0.105469,-0.09375 -0.105469,0 -0.105469,0.046875 -0.140625,0.1171875 -0.152344,0.56249995 -0.457031,0.84374995 -0.738281,0.84374995 -0.140625,0 -0.175781,-0.082031 -0.175781,-0.2460937 0,-0.15234375 0.05859,-0.29296875 0.117187,-0.4453125 0.07031,-0.1875 0.140625,-0.375 0.222656,-0.55078125 0.05859,-0.1640625 0.316407,-0.80859375 0.339844,-0.890625 0.02344,-0.0703125 0.04687,-0.15234375 0.04687,-0.22265625 0,-0.328125 -0.28125,-0.5859375 -0.667969,-0.5859375 -0.691406,0 -1.007812,0.94921875 -1.007812,1.06640625 0,0.0820312 0.09375,0.0820312 0.117187,0.0820312 0.09375,0 0.105469,-0.0351563 0.128907,-0.10546875 0.175781,-0.5976562 0.480468,-0.8554687 0.738281,-0.8554687 0.117187,0 0.175781,0.058594 0.175781,0.2460937 0,0.1640625 -0.03516,0.26953125 -0.210937,0.703125 z m 0,0"
         style="fill:#000000;fill-opacity:1;fill-rule:nonzero;stroke:none" />
    </g>
    <path
       id="path16"
       d="M 56.69362,42.5202 H 79.97945"
       style="fill:none;stroke:#000000;stroke-width:0.79701;stroke-linecap:butt;stroke-linejoin:miter;stroke-miterlimit:10;stroke-dasharray:none;stroke-opacity:1"
       transform="matrix(1.3333333,0,0,-1.3333333,33.485333,79.362667)" />
    <path
       id="path17"
       d="M 4.66248,0 C 3.28098,0.25902 1.0361,1.0361 -0.51805,1.94269 V -1.94269 C 1.0361,-1.0361 3.28098,-0.25902 4.66248,0"
       style="fill:#000000;fill-opacity:1;fill-rule:nonzero;stroke:none"
       transform="matrix(1.3333333,0,0,-1.3333333,140.1246,22.669067)" />
    <path
       id="path18"
       d="m 142.13255,42.5202 h 27.94831"
       style="fill:none;stroke:#000000;stroke-width:0.79701;stroke-linecap:butt;stroke-linejoin:miter;stroke-miterlimit:10;stroke-dasharray:none;stroke-opacity:1"
       transform="matrix(1.3333333,0,0,-1.3333333,33.485333,79.362667)" />
    <g
       id="g18"
       aria-label="y&#10;1&#10;(t)"
       transform="matrix(1.3333333,0,0,1.3333333,208.66133,14.389333)">
      <path
         id="path19"
         d="m 4.8389609,-3.7959063 c 0.046875,-0.140625 0.046875,-0.1523437 0.046875,-0.2226562 0,-0.1875 -0.140625,-0.2695313 -0.2929687,-0.2695313 -0.1054688,0 -0.2578125,0.058594 -0.3515625,0.1992188 -0.023437,0.058594 -0.09375,0.3632812 -0.140625,0.5390625 -0.070312,0.2578125 -0.140625,0.5273437 -0.1992188,0.796875 L 3.4561484,-0.95996875 C 3.4209922,-0.807625 2.9873984,-0.1045 2.3311484,-0.1045 c -0.5039062,0 -0.6210937,-0.4453125 -0.6210937,-0.80859375 0,-0.45703125 0.1757812,-1.07812505 0.515625,-1.95703125 0.1523437,-0.4101563 0.1992187,-0.515625 0.1992187,-0.7148438 0,-0.4453125 -0.328125,-0.8203125 -0.8203125,-0.8203125 -0.94921871,0 -1.31249996,1.453125 -1.31249996,1.5351563 0,0.1054687 0.09375,0.1054687 0.1171875,0.1054687 0.09375,0 0.10546875,-0.023437 0.15234375,-0.1875 0.26953125,-0.9375 0.66796871,-1.2304687 1.00781251,-1.2304687 0.082031,0 0.2578125,0 0.2578125,0.3164062 0,0.2460938 -0.1054688,0.515625 -0.1757813,0.703125 -0.3984375,1.0546875 -0.5742187,1.6171875 -0.5742187,2.0859375 0,0.89062505 0.6210937,1.1835938 1.21875,1.1835938 0.3867187,0 0.7265625,-0.1640625 0.9960937,-0.4453125 C 3.1631797,0.17675 3.0459922,0.6689375 2.6475547,1.1962812 2.3897422,1.536125 2.0147422,1.8290937 1.5577109,1.8290937 c -0.140625,0 -0.59765621,-0.035156 -0.76171871,-0.421875 0.1640625,0 0.29296871,0 0.43359371,-0.1171875 0.09375,-0.09375 0.1992188,-0.2226562 0.1992188,-0.4101562 0,-0.31640625 -0.2695313,-0.3515625 -0.375,-0.3515625 -0.22265626,0 -0.55078126,0.1640625 -0.55078126,0.6445312 0,0.5039063 0.43359375,0.8671875 1.05468746,0.8671875 1.0195313,0 2.0507813,-0.9023437 2.3320313,-2.0273437 z m 0,0"
         style="fill:#00ff00;fill-opacity:1;fill-rule:nonzero;stroke:none" />
      <path
         id="path20"
         d="m 7.2149375,-2.9345781 c 0,-0.1875 -0.011719,-0.1992188 -0.2109375,-0.1992188 -0.4453125,0.4335938 -1.078125,0.4453125 -1.359375,0.4453125 v 0.2460938 c 0.1640625,0 0.6210937,0 1.0078125,-0.1875 v 3.55078122 c 0,0.23437498 0,0.32812498 -0.6914063,0.32812498 H 5.6915 v 0.2460938 c 0.1289062,-0.011719 0.984375,-0.023437 1.2421875,-0.023437 0.2109375,0 1.0898437,0.011719 1.2421875,0.023437 V 1.2490156 H 7.9180625 c -0.703125,0 -0.703125,-0.09375 -0.703125,-0.32812498 z m 0,0"
         style="fill:#00ff00;fill-opacity:1;fill-rule:nonzero;stroke:none" />
      <path
         id="path21"
         d="m 12.646578,2.3915937 c 0,-0.035156 0,-0.046875 -0.164062,-0.2226562 -1.242188,-1.25390625 -1.570313,-3.12890625 -1.570313,-4.6640625 0,-1.7226563 0.386719,-3.4570313 1.605469,-4.7109375 0.128906,-0.1171875 0.128906,-0.1289063 0.128906,-0.1640625 0,-0.070312 -0.03516,-0.1054688 -0.09375,-0.1054688 -0.105469,0 -0.996094,0.6796875 -1.582031,1.9453125 -0.515625,1.1015625 -0.632813,2.203125 -0.632813,3.0351563 0,0.7851562 0.117188,1.9921875 0.65625,3.1171875 0.597657,1.21875 1.453125,1.875 1.558594,1.875 0.05859,0 0.09375,-0.035156 0.09375,-0.1054688 z m 0,0"
         style="fill:#00ff00;fill-opacity:1;fill-rule:nonzero;stroke:none" />
      <path
         id="path22"
         d="m 15.280367,-3.9834063 h 0.9375 c 0.199219,0 0.304688,0 0.304688,-0.1992187 0,-0.1054688 -0.105469,-0.1054688 -0.28125,-0.1054688 h -0.878907 c 0.363282,-1.4179687 0.410157,-1.6171875 0.410157,-1.6757812 0,-0.1757813 -0.117188,-0.2695313 -0.292969,-0.2695313 -0.02344,0 -0.304688,0.011719 -0.398438,0.3515625 l -0.386718,1.59375 h -0.9375 c -0.199219,0 -0.292969,0 -0.292969,0.1875 0,0.1171875 0.07031,0.1171875 0.269531,0.1171875 h 0.878906 c -0.714843,2.8242188 -0.75,3.00000005 -0.75,3.1757813 0,0.5390625 0.375,0.9140625 0.914063,0.9140625 1.007812,0 1.582031,-1.453125 1.582031,-1.5351563 0,-0.09375 -0.08203,-0.09375 -0.117187,-0.09375 -0.09375,0 -0.105469,0.023437 -0.152344,0.140625 -0.433594,1.03125005 -0.960938,1.2773438 -1.300781,1.2773438 -0.199219,0 -0.304688,-0.12890625 -0.304688,-0.45703125 0,-0.24609375 0.02344,-0.31640625 0.05859,-0.48046875 z m 0,0"
         style="fill:#00ff00;fill-opacity:1;fill-rule:nonzero;stroke:none" />
      <path
         id="path23"
         d="m 19.710055,-2.495125 c 0,-0.7734375 -0.117188,-1.9804688 -0.65625,-3.1054688 -0.597657,-1.21875 -1.464844,-1.875 -1.558594,-1.875 -0.05859,0 -0.105469,0.046875 -0.105469,0.1054688 0,0.035156 0,0.046875 0.199219,0.234375 0.972656,0.984375 1.535156,2.5664062 1.535156,4.640625 0,1.7109375 -0.363281,3.45703125 -1.59375,4.7226562 -0.140625,0.1171875 -0.140625,0.1289063 -0.140625,0.1640625 0,0.058594 0.04687,0.1054688 0.105469,0.1054688 0.09375,0 0.996094,-0.6796875 1.582031,-1.9453125 0.503906,-1.1015625 0.632813,-2.203125 0.632813,-3.046875 z m 0,0"
         style="fill:#00ff00;fill-opacity:1;fill-rule:nonzero;stroke:none" />
    </g>
  </g>
</svg>
